<?xml version="1.0" encoding="UTF-8"?>
<svg width="1443" height="820" viewBox="0 0 1443 820" xmlns="http://www.w3.org/2000/svg" role="img" aria-label="Fiera Lab logo vectorized">
  <title>Fiera Lab Logo</title>
  <desc>Vector conversion from the provided raster logo. Transparent background.</desc>
  <path d="M 1349.0 63.0 L 1004.0 63.0 L 994.0 103.0 L 990.0 110.0 L 832.0 110.0 L 822.0 151.0 L 818.0 157.0 L 573.0 157.0 L 564.0 197.0 L 560.0 205.0 L 219.0 205.0 L 146.0 474.0 L 146.0 479.0 L 144.0 481.0 L 142.0 494.0 L 134.0 519.0 L 130.0 539.0 L 128.0 541.0 L 100.0 651.0 L 98.0 653.0 L 79.0 730.0 L 343.0 730.0 L 356.0 683.0 L 669.0 683.0 L 682.0 635.0 L 845.0 635.0 L 856.0 590.0 L 859.0 588.0 L 1209.0 588.0 L 1295.0 271.0 L 1319.0 176.0 L 1321.0 174.0 L 1323.0 161.0 L 1345.0 84.0 Z M 1272.0 112.0 L 1166.0 507.0 L 1162.0 527.0 L 1159.0 532.0 L 871.0 532.0 L 860.0 576.0 L 855.0 588.0 L 692.0 588.0 L 682.0 631.0 L 679.0 635.0 L 367.0 635.0 L 355.0 683.0 L 156.0 682.0 L 239.0 368.0 L 241.0 366.0 L 241.0 360.0 L 245.0 350.0 L 267.0 264.0 L 270.0 261.0 L 547.0 261.0 L 559.0 214.0 L 564.0 205.0 L 809.0 205.0 L 819.0 162.0 L 822.0 157.0 L 981.0 157.0 L 991.0 113.0 L 994.0 110.0 L 1269.0 110.0 Z M 894.0 633.0 L 894.0 741.0 L 996.0 741.0 L 1004.0 721.0 L 1009.0 718.0 L 1053.0 719.0 L 1062.0 741.0 L 1152.0 741.0 L 1172.0 735.0 L 1177.0 731.0 L 1183.0 720.0 L 1183.0 702.0 L 1179.0 694.0 L 1169.0 685.0 L 1169.0 682.0 L 1177.0 672.0 L 1179.0 665.0 L 1178.0 654.0 L 1173.0 643.0 L 1167.0 638.0 L 1151.0 633.0 L 1089.0 633.0 L 1089.0 737.0 L 1086.0 738.0 L 1043.0 635.0 L 1041.0 633.0 L 1017.0 633.0 L 974.0 735.0 L 971.0 736.0 L 970.0 720.0 L 920.0 720.0 L 918.0 718.0 L 918.0 633.0 Z M 1113.0 697.0 L 1115.0 695.0 L 1145.0 695.0 L 1151.0 697.0 L 1158.0 702.0 L 1159.0 713.0 L 1155.0 718.0 L 1146.0 722.0 L 1115.0 722.0 L 1113.0 720.0 Z M 1113.0 653.0 L 1115.0 651.0 L 1137.0 651.0 L 1147.0 653.0 L 1154.0 660.0 L 1154.0 668.0 L 1147.0 675.0 L 1141.0 677.0 L 1116.0 677.0 L 1113.0 675.0 Z M 1028.0 662.0 L 1032.0 664.0 L 1032.0 668.0 L 1042.0 690.0 L 1042.0 699.0 L 1021.0 699.0 L 1015.0 697.0 L 1019.0 682.0 Z " fill="#FF7E00" fill-rule="evenodd"/>
  <path d="M 785.0 254.0 L 726.0 460.0 L 782.0 460.0 L 796.0 408.0 L 798.0 406.0 L 824.0 406.0 L 826.0 408.0 L 848.0 460.0 L 906.0 460.0 L 882.0 405.0 L 881.0 399.0 L 899.0 390.0 L 910.0 382.0 L 925.0 366.0 L 935.0 348.0 L 941.0 326.0 L 942.0 308.0 L 940.0 295.0 L 934.0 281.0 L 918.0 265.0 L 895.0 256.0 L 881.0 254.0 Z M 1118.0 227.0 L 1063.0 227.0 L 920.0 429.0 L 919.0 433.0 L 977.0 433.0 L 1004.0 393.0 L 1086.0 393.0 L 1090.0 433.0 L 1145.0 433.0 Z M 590.0 302.0 L 532.0 503.0 L 532.0 508.0 L 688.0 508.0 L 701.0 463.0 L 601.0 463.0 L 601.0 454.0 L 610.0 425.0 L 697.0 425.0 L 708.0 382.0 L 624.0 382.0 L 623.0 377.0 L 631.0 348.0 L 731.0 347.0 L 743.0 302.0 Z M 463.0 357.0 L 309.0 357.0 L 251.0 564.0 L 306.0 564.0 L 327.0 493.0 L 413.0 493.0 L 425.0 448.0 L 341.0 448.0 L 340.0 443.0 L 351.0 405.0 L 353.0 402.0 L 450.0 402.0 Z M 553.0 329.0 L 497.0 329.0 L 439.0 536.0 L 494.0 536.0 Z M 828.0 300.0 L 863.0 300.0 L 871.0 302.0 L 881.0 309.0 L 885.0 318.0 L 884.0 331.0 L 880.0 342.0 L 870.0 353.0 L 853.0 360.0 L 811.0 359.0 Z M 1075.0 287.0 L 1082.0 349.0 L 1035.0 350.0 L 1034.0 346.0 L 1072.0 288.0 Z " fill="#8B16A3" fill-rule="evenodd"/>
</svg>
